<svg xmlns="http://www.w3.org/2000/svg" xmlns:xlink="http://www.w3.org/1999/xlink" version="1.1" id="Layer_2" x="0px" y="0px" width="100px" height="100px" viewBox="0 0 100 100" enable-background="new 0 0 100 100" xml:space="preserve">
<path opacity="0.49" d="M71.458,59.646"/>
<path opacity="0.49" d="M36,50.708"/>
<path opacity="0.49" d="M49,86.294"/>
<path opacity="0.49" d="M49.083,86.294"/>
<path d="M49.042,35.625"/>
<path d="M48.042,86.335v-1.708c-0.292-0.375-0.458,0-0.458,0s0,4.208-0.083,5.167s-0.292,1.581-2.542,1.583  c-1.921,0.002-2.208-1.625-2.208-1.625l-0.167-4.875c-0.167-0.917-0.375-0.293-0.375-0.293s-0.042,3.917-0.042,5.125  s-0.083,0.916-0.083,0.916L30.25,96.794c-0.417,0.312-0.938-0.084-0.938-0.084l-1.438-2.314c-0.688-1.562,0.438-3.188,0.438-3.188  s8.625-11.438,9.812-12.75s1.25-3.875,1.312-4.375s-0.688-0.125-0.688-0.125s-18.938,3.75-20.938,4S16,77.583,16,77.583  s0-2.25,0-4.938s1.688-3.875,1.688-3.875l21.625-21.688c0,0-0.062-0.688,0-3.062s4.5-18.125,5.438-20.875s1.062-9.688,1.375-11.375  s2.125-7.375,2.312-8.062S49,3.021,49,3.021h0.083c0,0,0.375,0,0.562,0.688s2,6.375,2.312,8.062s0.438,8.625,1.375,11.375  s5.375,18.5,5.438,20.875s0,3.062,0,3.062l21.625,21.688c0,0,1.688,1.188,1.688,3.875s0,4.938,0,4.938s0.188,0.625-1.812,0.375  s-20.938-4-20.938-4s-0.75-0.375-0.688,0.125s0.125,3.062,1.312,4.375s9.812,12.75,9.812,12.75s1.125,1.625,0.438,3.188  l-1.438,2.314c0,0-0.521,0.396-0.938,0.084L56,90.625c0,0-0.084,0.292-0.084-0.916s-0.041-5.125-0.041-5.125  s-0.208-0.624-0.375,0.293l-0.167,4.875c0,0-0.291,1.75-2.208,1.625s-2.459-0.624-2.542-1.583S50.5,84.627,50.5,84.627  s-0.167-0.375-0.459,0v1.708 M51.297,32.36V20.458c0-1.246-1.01-2.256-2.255-2.256l0,0c-1.247,0-2.256,1.01-2.256,2.256V32.36  H51.297z"/>
</svg>